<ttFont>
    <TTGlyph name=".notdef" xMin="102" yMin="0" xMax="922" yMax="1462">
      <contour>
        <pt x="102" y="0" on="1"/>
        <pt x="102" y="1462" on="1"/>
        <pt x="922" y="1462" on="1"/>
        <pt x="922" y="0" on="1"/>
      </contour>
      <contour>
        <pt x="201" y="98" on="1"/>
        <pt x="823" y="98" on="1"/>
        <pt x="823" y="1364" on="1"/>
        <pt x="201" y="1364" on="1"/>
      </contour>
    </TTGlyph>
    <TTGlyph name="glyph00004" xMin="80" yMin="-25" xMax="1580" yMax="1484">
      <contour>
        <pt x="645" y="1484" on="1"/>
        <pt x="735" y="1281" on="0"/>
        <pt x="792" y="1130" on="1"/>
        <pt x="1024" y="1281" on="0"/>
        <pt x="1226" y="1399" on="1"/>
        <pt x="1300" y="1250" on="1"/>
        <pt x="1072" y="1121" on="0"/>
        <pt x="848" y="979" on="1"/>
        <pt x="916" y="792" on="0"/>
        <pt x="971" y="596" on="1"/>
        <pt x="1265" y="608" on="0"/>
        <pt x="1557" y="626" on="1"/>
        <pt x="1580" y="464" on="1"/>
        <pt x="1288" y="448" on="0"/>
        <pt x="1014" y="438" on="1"/>
        <pt x="1061" y="252" on="0"/>
        <pt x="1100" y="29" on="1"/>
        <pt x="924" y="-25" on="1"/>
        <pt x="880" y="214" on="0"/>
        <pt x="823" y="432" on="1"/>
        <pt x="471" y="421" on="0"/>
        <pt x="263" y="421" on="1"/>
        <pt x="168" y="421" on="0"/>
        <pt x="80" y="484" on="0"/>
        <pt x="80" y="547" on="1"/>
        <pt x="80" y="599" on="0"/>
        <pt x="143" y="691" on="0"/>
        <pt x="228" y="750" on="1"/>
        <pt x="463" y="913" on="0"/>
        <pt x="634" y="1026" on="1"/>
        <pt x="575" y="1185" on="0"/>
        <pt x="482" y="1406" on="1"/>
      </contour>
      <contour>
        <pt x="274" y="576" on="1"/>
        <pt x="522" y="580" on="0"/>
        <pt x="780" y="588" on="1"/>
        <pt x="742" y="717" on="0"/>
        <pt x="688" y="875" on="1"/>
        <pt x="475" y="735" on="0"/>
        <pt x="270" y="585" on="1"/>
      </contour>
    </TTGlyph>
    <TTGlyph name="glyph00005" xMin="80" yMin="-22" xMax="1076" yMax="1472">
      <contour>
        <pt x="881" y="558" on="1"/>
        <pt x="881" y="632" on="0"/>
        <pt x="853" y="756" on="1"/>
        <pt x="554" y="732" on="0"/>
        <pt x="169" y="732" on="1"/>
        <pt x="80" y="732" on="0"/>
        <pt x="80" y="824" on="1"/>
        <pt x="80" y="885" on="0"/>
        <pt x="151" y="961" on="1"/>
        <pt x="257" y="1077" on="0"/>
        <pt x="466" y="1297" on="0"/>
        <pt x="572" y="1389" on="1"/>
        <pt x="608" y="1421" on="1"/>
        <pt x="664" y="1472" on="0"/>
        <pt x="732" y="1472" on="1"/>
        <pt x="778" y="1472" on="0"/>
        <pt x="839" y="1432" on="0"/>
        <pt x="857" y="1386" on="1"/>
        <pt x="888" y="1309" on="0"/>
        <pt x="993" y="959" on="0"/>
        <pt x="1076" y="625" on="0"/>
        <pt x="1076" y="542" on="1"/>
        <pt x="1076" y="408" on="0"/>
        <pt x="718" y="111" on="0"/>
        <pt x="390" y="-22" on="1"/>
        <pt x="313" y="127" on="1"/>
        <pt x="439" y="171" on="0"/>
        <pt x="753" y="349" on="0"/>
        <pt x="881" y="492" on="0"/>
      </contour>
      <contour>
        <pt x="816" y="912" on="1"/>
        <pt x="765" y="1095" on="0"/>
        <pt x="702" y="1281" on="1"/>
        <pt x="615" y="1219" on="0"/>
        <pt x="401" y="1010" on="0"/>
        <pt x="311" y="902" on="1"/>
        <pt x="315" y="893" on="1"/>
        <pt x="365" y="892" on="1"/>
        <pt x="536" y="892" on="0"/>
      </contour>
    </TTGlyph>
    <TTGlyph name="glyph00006" xMin="30" yMin="0" xMax="985" yMax="1474">
      <contour>
        <pt x="30" y="938" on="1"/>
        <pt x="270" y="1232" on="0"/>
        <pt x="581" y="1439" on="1"/>
        <pt x="631" y="1474" on="0"/>
        <pt x="682" y="1474" on="1"/>
        <pt x="723" y="1474" on="0"/>
        <pt x="761" y="1433" on="0"/>
        <pt x="772" y="1406" on="1"/>
        <pt x="840" y="1242" on="0"/>
        <pt x="977" y="437" on="0"/>
        <pt x="985" y="42" on="1"/>
        <pt x="793" y="0" on="1"/>
        <pt x="788" y="210" on="0"/>
        <pt x="749" y="603" on="0"/>
        <pt x="663" y="1121" on="0"/>
        <pt x="619" y="1245" on="1"/>
        <pt x="454" y="1124" on="0"/>
        <pt x="240" y="924" on="0"/>
        <pt x="149" y="817" on="1"/>
      </contour>
    </TTGlyph>
    <TTGlyph name="glyph00007" xMin="100" yMin="219" xMax="1244" yMax="1472">
      <contour>
        <pt x="1072" y="219" on="1"/>
        <pt x="1019" y="403" on="0"/>
        <pt x="925" y="638" on="1"/>
        <pt x="815" y="611" on="0"/>
        <pt x="487" y="573" on="0"/>
        <pt x="369" y="573" on="1"/>
        <pt x="100" y="573" on="0"/>
        <pt x="100" y="662" on="1"/>
        <pt x="100" y="728" on="0"/>
        <pt x="164" y="912" on="0"/>
        <pt x="285" y="1138" on="0"/>
        <pt x="443" y="1370" on="0"/>
        <pt x="556" y="1472" on="0"/>
        <pt x="621" y="1472" on="1"/>
        <pt x="672" y="1472" on="0"/>
        <pt x="781" y="1339" on="0"/>
        <pt x="930" y="1062" on="0"/>
        <pt x="1082" y="721" on="0"/>
        <pt x="1210" y="388" on="0"/>
        <pt x="1244" y="271" on="1"/>
      </contour>
      <contour>
        <pt x="863" y="786" on="1"/>
        <pt x="799" y="933" on="0"/>
        <pt x="657" y="1206" on="0"/>
        <pt x="599" y="1281" on="1"/>
        <pt x="495" y="1148" on="0"/>
        <pt x="325" y="836" on="0"/>
        <pt x="310" y="753" on="1"/>
        <pt x="314" y="744" on="1"/>
        <pt x="346" y="736" on="0"/>
        <pt x="415" y="736" on="1"/>
        <pt x="573" y="736" on="0"/>
      </contour>
    </TTGlyph>
    <TTGlyph name="glyph00008" xMin="100" yMin="-25" xMax="1325" yMax="1472">
      <contour>
        <pt x="100" y="1047" on="1"/>
        <pt x="192" y="1118" on="0"/>
        <pt x="312" y="1206" on="0"/>
        <pt x="410" y="1277" on="0"/>
        <pt x="618" y="1421" on="1"/>
        <pt x="691" y="1472" on="0"/>
        <pt x="758" y="1472" on="1"/>
        <pt x="805" y="1472" on="0"/>
        <pt x="853" y="1432" on="0"/>
        <pt x="867" y="1404" on="1"/>
        <pt x="1003" y="1121" on="0"/>
        <pt x="1212" y="502" on="0"/>
        <pt x="1325" y="31" on="1"/>
        <pt x="1162" y="-25" on="1"/>
        <pt x="1104" y="225" on="0"/>
        <pt x="1037" y="458" on="1"/>
        <pt x="806" y="271" on="0"/>
        <pt x="499" y="99" on="1"/>
        <pt x="421" y="241" on="1"/>
        <pt x="729" y="409" on="0"/>
        <pt x="986" y="626" on="1"/>
        <pt x="947" y="754" on="0"/>
        <pt x="902" y="881" on="1"/>
        <pt x="660" y="706" on="0"/>
        <pt x="347" y="525" on="1"/>
        <pt x="269" y="667" on="1"/>
        <pt x="561" y="834" on="0"/>
        <pt x="844" y="1039" on="1"/>
        <pt x="783" y="1193" on="0"/>
        <pt x="734" y="1279" on="1"/>
        <pt x="467" y="1119" on="0"/>
        <pt x="187" y="911" on="1"/>
      </contour>
    </TTGlyph>
    <TTGlyph name="glyph00009" xMin="35" yMin="-16" xMax="1096" yMax="1486">
      <contour>
        <pt x="1007" y="1389" on="1"/>
        <pt x="918" y="1232" on="0"/>
        <pt x="853" y="1019" on="0"/>
        <pt x="853" y="905" on="1"/>
        <pt x="853" y="671" on="0"/>
        <pt x="986" y="249" on="0"/>
        <pt x="1096" y="124" on="1"/>
        <pt x="961" y="-16" on="1"/>
        <pt x="828" y="115" on="0"/>
        <pt x="659" y="625" on="0"/>
        <pt x="659" y="894" on="1"/>
        <pt x="659" y="937" on="1"/>
        <pt x="661" y="985" on="1"/>
        <pt x="531" y="922" on="0"/>
        <pt x="380" y="922" on="1"/>
        <pt x="223" y="922" on="0"/>
        <pt x="35" y="1100" on="0"/>
        <pt x="35" y="1241" on="1"/>
        <pt x="35" y="1355" on="0"/>
        <pt x="100" y="1473" on="1"/>
        <pt x="272" y="1397" on="1"/>
        <pt x="230" y="1332" on="0"/>
        <pt x="230" y="1246" on="1"/>
        <pt x="230" y="1168" on="0"/>
        <pt x="315" y="1084" on="0"/>
        <pt x="389" y="1084" on="1"/>
        <pt x="688" y="1084" on="0"/>
        <pt x="848" y="1486" on="1"/>
      </contour>
    </TTGlyph>
    <TTGlyph name="glyph00010" xMin="140" yMin="-22" xMax="1189" yMax="1494">
      <contour>
        <pt x="715" y="1494" on="1"/>
        <pt x="769" y="1494" on="0"/>
        <pt x="769" y="1418" on="1"/>
        <pt x="769" y="1367" on="0"/>
        <pt x="747" y="1105" on="1"/>
        <pt x="725" y="842" on="0"/>
        <pt x="725" y="665" on="1"/>
        <pt x="725" y="258" on="0"/>
        <pt x="740" y="165" on="1"/>
        <pt x="1160" y="270" on="1"/>
        <pt x="1189" y="114" on="1"/>
        <pt x="868" y="22" on="1"/>
        <pt x="822" y="8" on="0"/>
        <pt x="676" y="-22" on="0"/>
        <pt x="657" y="-22" on="1"/>
        <pt x="624" y="-22" on="0"/>
        <pt x="575" y="10" on="0"/>
        <pt x="559" y="53" on="1"/>
        <pt x="546" y="90" on="0"/>
        <pt x="532" y="535" on="0"/>
        <pt x="532" y="658" on="1"/>
        <pt x="532" y="762" on="0"/>
        <pt x="557" y="1206" on="0"/>
        <pt x="570" y="1297" on="1"/>
        <pt x="140" y="1182" on="1"/>
        <pt x="147" y="1347" on="1"/>
        <pt x="580" y="1471" on="1"/>
        <pt x="672" y="1494" on="0"/>
      </contour>
    </TTGlyph>
    <TTGlyph name="glyph00011" xMin="150" yMin="-10" xMax="1177" yMax="1426">
      <contour>
        <pt x="288" y="77" on="1"/>
        <pt x="257" y="77" on="0"/>
        <pt x="227" y="114" on="0"/>
        <pt x="227" y="158" on="1"/>
        <pt x="227" y="545" on="0"/>
        <pt x="175" y="1115" on="1"/>
        <pt x="150" y="1402" on="1"/>
        <pt x="336" y="1426" on="1"/>
        <pt x="355" y="1225" on="1"/>
        <pt x="1027" y="1394" on="1"/>
        <pt x="1055" y="1398" on="1"/>
        <pt x="1103" y="1398" on="0"/>
        <pt x="1109" y="1345" on="1"/>
        <pt x="1172" y="827" on="0"/>
        <pt x="1177" y="20" on="1"/>
        <pt x="985" y="-10" on="1"/>
        <pt x="985" y="250" on="1"/>
        <pt x="336" y="84" on="1"/>
        <pt x="311" y="77" on="0"/>
      </contour>
      <contour>
        <pt x="959" y="891" on="1"/>
        <pt x="949" y="1040" on="0"/>
        <pt x="933" y="1203" on="1"/>
        <pt x="370" y="1059" on="1"/>
        <pt x="381" y="947" on="0"/>
        <pt x="395" y="747" on="1"/>
      </contour>
      <contour>
        <pt x="983" y="418" on="1"/>
        <pt x="970" y="725" on="1"/>
        <pt x="404" y="581" on="1"/>
        <pt x="408" y="501" on="0"/>
        <pt x="414" y="273" on="1"/>
      </contour>
    </TTGlyph>
    <TTGlyph name="glyph00012" xMin="150" yMin="-20" xMax="1506" yMax="1485">
      <contour>
        <pt x="1506" y="651" on="1"/>
        <pt x="1506" y="329" on="0"/>
        <pt x="1180" y="-20" on="0"/>
        <pt x="876" y="-20" on="1"/>
        <pt x="533" y="-20" on="0"/>
        <pt x="150" y="421" on="0"/>
        <pt x="150" y="813" on="1"/>
        <pt x="150" y="1132" on="0"/>
        <pt x="479" y="1485" on="0"/>
        <pt x="777" y="1485" on="1"/>
        <pt x="1006" y="1485" on="0"/>
        <pt x="1335" y="1283" on="0"/>
        <pt x="1506" y="906" on="0"/>
      </contour>
      <contour>
        <pt x="1312" y="654" on="1"/>
        <pt x="1312" y="975" on="0"/>
        <pt x="1038" y="1323" on="0"/>
        <pt x="787" y="1323" on="1"/>
        <pt x="566" y="1323" on="0"/>
        <pt x="345" y="1064" on="0"/>
        <pt x="345" y="812" on="1"/>
        <pt x="345" y="491" on="0"/>
        <pt x="615" y="142" on="0"/>
        <pt x="866" y="142" on="1"/>
        <pt x="1086" y="142" on="0"/>
        <pt x="1312" y="402" on="0"/>
      </contour>
      <contour>
        <pt x="741" y="356" on="1"/>
        <pt x="741" y="479" on="0"/>
        <pt x="734" y="647" on="1"/>
        <pt x="652" y="642" on="0"/>
        <pt x="526" y="642" on="1"/>
        <pt x="509" y="642" on="1"/>
        <pt x="463" y="643" on="1"/>
        <pt x="446" y="643" on="1"/>
        <pt x="436" y="804" on="1"/>
        <pt x="509" y="803" on="1"/>
        <pt x="622" y="803" on="0"/>
        <pt x="726" y="809" on="1"/>
        <pt x="703" y="1106" on="1"/>
        <pt x="882" y="1131" on="1"/>
        <pt x="904" y="915" on="0"/>
        <pt x="910" y="825" on="1"/>
        <pt x="1064" y="843" on="0"/>
        <pt x="1196" y="871" on="1"/>
        <pt x="1214" y="712" on="1"/>
        <pt x="1077" y="681" on="0"/>
        <pt x="919" y="662" on="1"/>
        <pt x="926" y="494" on="0"/>
        <pt x="926" y="373" on="1"/>
      </contour>
    </TTGlyph>
    <TTGlyph name="glyph00013" xMin="120" yMin="203" xMax="1125" yMax="1491">
      <contour>
        <pt x="1125" y="350" on="1"/>
        <pt x="990" y="336" on="0"/>
        <pt x="739" y="280" on="0"/>
        <pt x="528" y="215" on="1"/>
        <pt x="486" y="203" on="0"/>
        <pt x="455" y="203" on="1"/>
        <pt x="372" y="203" on="0"/>
        <pt x="354" y="284" on="1"/>
        <pt x="374" y="417" on="0"/>
        <pt x="491" y="765" on="1"/>
        <pt x="333" y="737" on="0"/>
        <pt x="129" y="673" on="1"/>
        <pt x="149" y="833" on="1"/>
        <pt x="360" y="907" on="0"/>
        <pt x="551" y="937" on="1"/>
        <pt x="621" y="1134" on="0"/>
        <pt x="688" y="1297" on="1"/>
        <pt x="120" y="1175" on="1"/>
        <pt x="133" y="1356" on="1"/>
        <pt x="747" y="1482" on="1"/>
        <pt x="785" y="1491" on="0"/>
        <pt x="812" y="1491" on="1"/>
        <pt x="910" y="1491" on="0"/>
        <pt x="910" y="1390" on="1"/>
        <pt x="910" y="1366" on="0"/>
        <pt x="890" y="1306" on="1"/>
        <pt x="665" y="757" on="0"/>
        <pt x="567" y="400" on="1"/>
        <pt x="698" y="440" on="0"/>
        <pt x="927" y="489" on="0"/>
        <pt x="1087" y="512" on="1"/>
      </contour>
    </TTGlyph>
    <TTGlyph name="glyph00014" xMin="100" yMin="-24" xMax="1164" yMax="1482">
      <contour>
        <pt x="1164" y="1425" on="1"/>
        <pt x="851" y="616" on="0"/>
        <pt x="699" y="-24" on="1"/>
        <pt x="524" y="35" on="1"/>
        <pt x="569" y="278" on="0"/>
        <pt x="694" y="663" on="1"/>
        <pt x="438" y="574" on="0"/>
        <pt x="157" y="446" on="1"/>
        <pt x="100" y="597" on="1"/>
        <pt x="449" y="754" on="0"/>
        <pt x="757" y="857" on="1"/>
        <pt x="613" y="1001" on="0"/>
        <pt x="282" y="1272" on="0"/>
        <pt x="148" y="1357" on="1"/>
        <pt x="258" y="1482" on="1"/>
        <pt x="404" y="1390" on="0"/>
        <pt x="709" y="1150" on="0"/>
        <pt x="822" y="1038" on="1"/>
        <pt x="901" y="1263" on="0"/>
        <pt x="989" y="1482" on="1"/>
      </contour>
    </TTGlyph>
    <TTGlyph name="glyph00015" xMin="80" yMin="-15" xMax="961" yMax="1406">
      <contour>
        <pt x="961" y="108" on="1"/>
        <pt x="783" y="51" on="0"/>
        <pt x="381" y="-15" on="0"/>
        <pt x="226" y="-15" on="1"/>
        <pt x="163" y="-15" on="0"/>
        <pt x="80" y="38" on="0"/>
        <pt x="80" y="83" on="1"/>
        <pt x="80" y="114" on="0"/>
        <pt x="109" y="207" on="0"/>
        <pt x="126" y="261" on="1"/>
        <pt x="163" y="382" on="0"/>
        <pt x="472" y="1067" on="0"/>
        <pt x="653" y="1406" on="1"/>
        <pt x="818" y="1329" on="1"/>
        <pt x="756" y="1222" on="0"/>
        <pt x="450" y="584" on="0"/>
        <pt x="296" y="224" on="0"/>
        <pt x="281" y="158" on="1"/>
        <pt x="593" y="175" on="0"/>
        <pt x="926" y="274" on="1"/>
      </contour>
    </TTGlyph>
    <TTGlyph name="glyph00016" xMin="60" yMin="-112" xMax="1421" yMax="1488">
      <contour>
        <pt x="218" y="1488" on="1"/>
        <pt x="394" y="1141" on="1"/>
        <pt x="564" y="1342" on="1"/>
        <pt x="593" y="1376" on="0"/>
        <pt x="631" y="1395" on="0"/>
        <pt x="651" y="1395" on="1"/>
        <pt x="694" y="1395" on="0"/>
        <pt x="736" y="1338" on="1"/>
        <pt x="890" y="1141" on="1"/>
        <pt x="1170" y="1396" on="1"/>
        <pt x="1203" y="1425" on="0"/>
        <pt x="1252" y="1449" on="0"/>
        <pt x="1292" y="1449" on="1"/>
        <pt x="1348" y="1449" on="0"/>
        <pt x="1421" y="1367" on="0"/>
        <pt x="1421" y="1299" on="1"/>
        <pt x="1421" y="1113" on="0"/>
        <pt x="1204" y="625" on="0"/>
        <pt x="789" y="80" on="0"/>
        <pt x="564" y="-112" on="1"/>
        <pt x="451" y="14" on="1"/>
        <pt x="624" y="169" on="0"/>
        <pt x="976" y="624" on="0"/>
        <pt x="1215" y="1069" on="0"/>
        <pt x="1234" y="1213" on="1"/>
        <pt x="1049" y="1036" on="0"/>
        <pt x="994" y="994" on="0"/>
        <pt x="941" y="967" on="0"/>
        <pt x="896" y="955" on="0"/>
        <pt x="870" y="955" on="1"/>
        <pt x="829" y="955" on="0"/>
        <pt x="779" y="987" on="0"/>
        <pt x="738" y="1038" on="1"/>
        <pt x="636" y="1161" on="1"/>
        <pt x="475" y="990" on="1"/>
        <pt x="418" y="931" on="0"/>
        <pt x="364" y="931" on="1"/>
        <pt x="294" y="931" on="0"/>
        <pt x="249" y="1020" on="1"/>
        <pt x="60" y="1398" on="1"/>
      </contour>
    </TTGlyph>
    <TTGlyph name="glyph00017" xMin="80" yMin="-37" xMax="939" yMax="1477">
      <contour>
        <pt x="410" y="1067" on="1"/>
        <pt x="582" y="1208" on="0"/>
        <pt x="763" y="1356" on="0"/>
        <pt x="813" y="1348" on="1"/>
        <pt x="864" y="1348" on="0"/>
        <pt x="939" y="1283" on="0"/>
        <pt x="939" y="1239" on="1"/>
        <pt x="939" y="979" on="0"/>
        <pt x="630" y="232" on="0"/>
        <pt x="419" y="-37" on="1"/>
        <pt x="270" y="68" on="1"/>
        <pt x="375" y="205" on="0"/>
        <pt x="583" y="588" on="0"/>
        <pt x="712" y="956" on="0"/>
        <pt x="733" y="1113" on="1"/>
        <pt x="487" y="913" on="1"/>
        <pt x="456" y="888" on="0"/>
        <pt x="385" y="864" on="0"/>
        <pt x="359" y="864" on="1"/>
        <pt x="324" y="864" on="0"/>
        <pt x="270" y="909" on="0"/>
        <pt x="257" y="947" on="1"/>
        <pt x="80" y="1397" on="1"/>
        <pt x="239" y="1477" on="1"/>
      </contour>
    </TTGlyph>
    <TTGlyph name="glyph00018" xMin="140" yMin="-11" xMax="1144" yMax="1477">
      <contour>
        <pt x="524" y="1089" on="1"/>
        <pt x="499" y="1222" on="0"/>
        <pt x="484" y="1282" on="1"/>
        <pt x="249" y="1256" on="0"/>
        <pt x="140" y="1233" on="1"/>
        <pt x="156" y="1399" on="1"/>
        <pt x="662" y="1470" on="0"/>
        <pt x="1060" y="1477" on="1"/>
        <pt x="1044" y="1313" on="1"/>
        <pt x="875" y="1313" on="0"/>
        <pt x="681" y="1299" on="1"/>
        <pt x="700" y="1228" on="0"/>
        <pt x="720" y="1110" on="1"/>
        <pt x="898" y="1126" on="0"/>
        <pt x="1084" y="1134" on="1"/>
        <pt x="1072" y="970" on="1"/>
        <pt x="915" y="966" on="0"/>
        <pt x="745" y="950" on="1"/>
        <pt x="770" y="744" on="1"/>
        <pt x="937" y="757" on="0"/>
        <pt x="1144" y="761" on="1"/>
        <pt x="1128" y="597" on="1"/>
        <pt x="964" y="597" on="0"/>
        <pt x="786" y="583" on="1"/>
        <pt x="811" y="301" on="0"/>
        <pt x="816" y="-11" on="1"/>
        <pt x="623" y="8" on="1"/>
        <pt x="621" y="281" on="0"/>
        <pt x="594" y="566" on="1"/>
        <pt x="432" y="549" on="0"/>
        <pt x="226" y="521" on="1"/>
        <pt x="242" y="687" on="1"/>
        <pt x="452" y="715" on="0"/>
        <pt x="577" y="727" on="1"/>
        <pt x="563" y="852" on="0"/>
        <pt x="550" y="929" on="1"/>
        <pt x="417" y="913" on="0"/>
        <pt x="173" y="875" on="1"/>
        <pt x="185" y="1041" on="1"/>
        <pt x="308" y="1062" on="0"/>
      </contour>
    </TTGlyph>
    <TTGlyph name="glyph00019" xMin="160" yMin="472" xMax="1332" yMax="1485">
      <contour>
        <pt x="780" y="1485" on="1"/>
        <pt x="937" y="1485" on="0"/>
        <pt x="1183" y="1364" on="0"/>
        <pt x="1332" y="1126" on="0"/>
        <pt x="1332" y="987" on="1"/>
        <pt x="1332" y="834" on="0"/>
        <pt x="1174" y="593" on="0"/>
        <pt x="897" y="472" on="0"/>
        <pt x="709" y="472" on="1"/>
        <pt x="454" y="472" on="0"/>
        <pt x="160" y="743" on="0"/>
        <pt x="160" y="975" on="1"/>
        <pt x="160" y="1119" on="0"/>
        <pt x="316" y="1354" on="0"/>
        <pt x="599" y="1485" on="0"/>
      </contour>
      <contour>
        <pt x="774" y="1323" on="1"/>
        <pt x="646" y="1323" on="0"/>
        <pt x="455" y="1236" on="0"/>
        <pt x="354" y="1080" on="0"/>
        <pt x="354" y="983" on="1"/>
        <pt x="354" y="819" on="0"/>
        <pt x="548" y="634" on="0"/>
        <pt x="723" y="634" on="1"/>
        <pt x="918" y="634" on="0"/>
        <pt x="1138" y="822" on="0"/>
        <pt x="1138" y="988" on="1"/>
        <pt x="1138" y="1074" on="0"/>
        <pt x="1045" y="1230" on="0"/>
        <pt x="878" y="1323" on="0"/>
      </contour>
    </TTGlyph>
    <TTGlyph name="glyph00020" xMin="100" yMin="-25" xMax="976" yMax="1484">
      <contour>
        <pt x="100" y="1127" on="1"/>
        <pt x="203" y="1484" on="0"/>
        <pt x="588" y="1484" on="1"/>
        <pt x="774" y="1484" on="0"/>
        <pt x="976" y="1283" on="0"/>
        <pt x="976" y="1101" on="1"/>
        <pt x="976" y="894" on="0"/>
        <pt x="784" y="280" on="0"/>
        <pt x="628" y="-25" on="1"/>
        <pt x="452" y="29" on="1"/>
        <pt x="609" y="357" on="0"/>
        <pt x="782" y="916" on="0"/>
        <pt x="782" y="1115" on="1"/>
        <pt x="782" y="1210" on="0"/>
        <pt x="667" y="1322" on="0"/>
        <pt x="567" y="1322" on="1"/>
        <pt x="346" y="1322" on="0"/>
        <pt x="282" y="1093" on="1"/>
      </contour>
    </TTGlyph>
    <TTGlyph name="glyph00021" xMin="80" yMin="-8" xMax="1461" yMax="1511">
      <contour>
        <pt x="259" y="1511" on="1"/>
        <pt x="318" y="1331" on="0"/>
        <pt x="401" y="1134" on="1"/>
        <pt x="485" y="1251" on="0"/>
        <pt x="719" y="1422" on="0"/>
        <pt x="796" y="1422" on="1"/>
        <pt x="867" y="1422" on="0"/>
        <pt x="924" y="1312" on="1"/>
        <pt x="1014" y="1144" on="1"/>
        <pt x="1044" y="1089" on="0"/>
        <pt x="1085" y="1089" on="1"/>
        <pt x="1131" y="1089" on="0"/>
        <pt x="1248" y="1230" on="0"/>
        <pt x="1311" y="1367" on="1"/>
        <pt x="1461" y="1299" on="1"/>
        <pt x="1353" y="1094" on="0"/>
        <pt x="1171" y="920" on="0"/>
        <pt x="1070" y="920" on="1"/>
        <pt x="1018" y="920" on="0"/>
        <pt x="918" y="986" on="0"/>
        <pt x="883" y="1046" on="1"/>
        <pt x="769" y="1246" on="1"/>
        <pt x="609" y="1153" on="0"/>
        <pt x="477" y="960" on="1"/>
        <pt x="654" y="568" on="0"/>
        <pt x="918" y="112" on="1"/>
        <pt x="774" y="-8" on="1"/>
        <pt x="532" y="404" on="0"/>
        <pt x="199" y="1107" on="0"/>
        <pt x="80" y="1452" on="1"/>
      </contour>
    </TTGlyph>
    <TTGlyph name="glyph00022" xMin="120" yMin="0" xMax="1260" yMax="1485">
      <contour>
        <pt x="539" y="0" on="1"/>
        <pt x="526" y="241" on="0"/>
        <pt x="526" y="329" on="1"/>
        <pt x="531" y="513" on="1"/>
        <pt x="342" y="540" on="0"/>
        <pt x="120" y="791" on="0"/>
        <pt x="120" y="985" on="1"/>
        <pt x="120" y="1126" on="0"/>
        <pt x="288" y="1356" on="0"/>
        <pt x="574" y="1485" on="0"/>
        <pt x="729" y="1485" on="1"/>
        <pt x="877" y="1485" on="0"/>
        <pt x="1123" y="1359" on="0"/>
        <pt x="1260" y="1134" on="0"/>
        <pt x="1260" y="995" on="1"/>
        <pt x="1260" y="784" on="0"/>
        <pt x="970" y="527" on="0"/>
        <pt x="718" y="508" on="1"/>
        <pt x="714" y="343" on="1"/>
        <pt x="714" y="182" on="0"/>
        <pt x="728" y="0" on="1"/>
      </contour>
      <contour>
        <pt x="1072" y="984" on="1"/>
        <pt x="1072" y="1106" on="0"/>
        <pt x="938" y="1281" on="0"/>
        <pt x="821" y="1311" on="1"/>
        <pt x="794" y="1178" on="0"/>
        <pt x="743" y="817" on="0"/>
        <pt x="730" y="672" on="1"/>
        <pt x="892" y="692" on="0"/>
        <pt x="1072" y="856" on="0"/>
      </contour>
      <contour>
        <pt x="307" y="966" on="1"/>
        <pt x="307" y="847" on="0"/>
        <pt x="430" y="697" on="0"/>
        <pt x="543" y="676" on="1"/>
        <pt x="560" y="857" on="0"/>
        <pt x="614" y="1210" on="0"/>
        <pt x="637" y="1315" on="1"/>
        <pt x="489" y="1290" on="0"/>
        <pt x="307" y="1098" on="0"/>
      </contour>
    </TTGlyph>
    <TTGlyph name="glyph00023" xMin="100" yMin="-227" xMax="1245" yMax="1479">
      <contour>
        <pt x="1071" y="-227" on="1"/>
        <pt x="880" y="259" on="0"/>
        <pt x="743" y="744" on="1"/>
        <pt x="654" y="727" on="0"/>
        <pt x="534" y="727" on="1"/>
        <pt x="333" y="727" on="0"/>
        <pt x="100" y="782" on="0"/>
        <pt x="100" y="833" on="1"/>
        <pt x="109" y="943" on="0"/>
        <pt x="318" y="1251" on="0"/>
        <pt x="596" y="1479" on="0"/>
        <pt x="679" y="1479" on="1"/>
        <pt x="723" y="1479" on="0"/>
        <pt x="760" y="1435" on="0"/>
        <pt x="777" y="1362" on="1"/>
        <pt x="864" y="971" on="0"/>
        <pt x="1129" y="91" on="0"/>
        <pt x="1245" y="-162" on="1"/>
      </contour>
      <contour>
        <pt x="618" y="1279" on="1"/>
        <pt x="585" y="1264" on="0"/>
        <pt x="438" y="1126" on="0"/>
        <pt x="327" y="982" on="0"/>
        <pt x="300" y="921" on="1"/>
        <pt x="303" y="911" on="1"/>
        <pt x="392" y="892" on="0"/>
        <pt x="517" y="892" on="1"/>
        <pt x="620" y="892" on="0"/>
        <pt x="699" y="906" on="1"/>
        <pt x="645" y="1115" on="0"/>
      </contour>
    </TTGlyph>
    <TTGlyph name="glyph00024" xMin="60" yMin="436" xMax="1408" yMax="1504">
      <contour>
        <pt x="1025" y="436" on="1"/>
        <pt x="982" y="436" on="0"/>
        <pt x="927" y="480" on="0"/>
        <pt x="842" y="706" on="0"/>
        <pt x="757" y="1050" on="0"/>
        <pt x="741" y="1162" on="1"/>
        <pt x="681" y="1105" on="0"/>
        <pt x="541" y="768" on="1"/>
        <pt x="522" y="723" on="0"/>
        <pt x="477" y="673" on="0"/>
        <pt x="433" y="656" on="0"/>
        <pt x="407" y="656" on="1"/>
        <pt x="358" y="656" on="0"/>
        <pt x="305" y="686" on="0"/>
        <pt x="231" y="823" on="0"/>
        <pt x="160" y="1016" on="0"/>
        <pt x="84" y="1294" on="0"/>
        <pt x="60" y="1408" on="1"/>
        <pt x="230" y="1461" on="1"/>
        <pt x="337" y="1020" on="0"/>
        <pt x="407" y="885" on="1"/>
        <pt x="513" y="1138" on="0"/>
        <pt x="725" y="1504" on="0"/>
        <pt x="777" y="1504" on="1"/>
        <pt x="819" y="1504" on="0"/>
        <pt x="859" y="1451" on="0"/>
        <pt x="868" y="1411" on="1"/>
        <pt x="909" y="1208" on="1"/>
        <pt x="980" y="846" on="0"/>
        <pt x="1032" y="709" on="1"/>
        <pt x="1129" y="897" on="0"/>
        <pt x="1230" y="1307" on="1"/>
        <pt x="1408" y="1254" on="1"/>
        <pt x="1393" y="1174" on="0"/>
        <pt x="1319" y="932" on="0"/>
        <pt x="1220" y="669" on="0"/>
        <pt x="1140" y="501" on="0"/>
        <pt x="1075" y="436" on="0"/>
      </contour>
    </TTGlyph>
    <TTGlyph name="glyph00025" xMin="200" yMin="54" xMax="1311" yMax="1413">
      <contour>
        <pt x="798" y="1413" on="1"/>
        <pt x="972" y="1362" on="1"/>
        <pt x="876" y="1059" on="0"/>
        <pt x="835" y="905" on="1"/>
        <pt x="1079" y="922" on="0"/>
        <pt x="1311" y="931" on="1"/>
        <pt x="1299" y="767" on="1"/>
        <pt x="1106" y="763" on="0"/>
        <pt x="793" y="739" on="1"/>
        <pt x="726" y="454" on="0"/>
        <pt x="692" y="54" on="1"/>
        <pt x="505" y="78" on="1"/>
        <pt x="530" y="424" on="0"/>
        <pt x="596" y="723" on="1"/>
        <pt x="346" y="698" on="0"/>
        <pt x="200" y="675" on="1"/>
        <pt x="212" y="841" on="1"/>
        <pt x="356" y="864" on="0"/>
        <pt x="637" y="890" on="1"/>
        <pt x="690" y="1096" on="0"/>
      </contour>
    </TTGlyph>
    <TTGlyph name="glyph00026" xMin="220" yMin="-22" xMax="622" yMax="1476">
      <contour>
        <pt x="622" y="1450" on="1"/>
        <pt x="607" y="1175" on="0"/>
        <pt x="490" y="397" on="0"/>
        <pt x="404" y="-22" on="1"/>
        <pt x="220" y="28" on="1"/>
        <pt x="384" y="808" on="0"/>
        <pt x="436" y="1476" on="1"/>
      </contour>
    </TTGlyph>
    <TTGlyph name="glyph00027" xMin="92" yMin="378" xMax="1324" yMax="901">
      <contour>
        <pt x="1062" y="523" on="1"/>
        <pt x="1129" y="585" on="0"/>
        <pt x="1129" y="661" on="1"/>
        <pt x="1129" y="705" on="0"/>
        <pt x="1082" y="736" on="0"/>
        <pt x="1027" y="736" on="1"/>
        <pt x="915" y="736" on="0"/>
        <pt x="92" y="699" on="1"/>
        <pt x="115" y="873" on="1"/>
        <pt x="739" y="901" on="0"/>
        <pt x="1112" y="901" on="1"/>
        <pt x="1212" y="901" on="0"/>
        <pt x="1324" y="782" on="0"/>
        <pt x="1324" y="671" on="1"/>
        <pt x="1324" y="588" on="0"/>
        <pt x="1259" y="435" on="0"/>
        <pt x="1196" y="378" on="1"/>
      </contour>
    </TTGlyph>
    <TTGlyph name="glyph00028" xMin="85" yMin="183" xMax="944" yMax="1484">
      <contour>
        <pt x="330" y="308" on="1"/>
        <pt x="460" y="434" on="0"/>
        <pt x="680" y="726" on="0"/>
        <pt x="736" y="850" on="1"/>
        <pt x="618" y="814" on="0"/>
        <pt x="385" y="768" on="0"/>
        <pt x="305" y="768" on="1"/>
        <pt x="243" y="768" on="0"/>
        <pt x="191" y="820" on="0"/>
        <pt x="191" y="887" on="1"/>
        <pt x="191" y="914" on="0"/>
        <pt x="267" y="1046" on="0"/>
        <pt x="446" y="1271" on="0"/>
        <pt x="494" y="1316" on="1"/>
        <pt x="437" y="1319" on="1"/>
        <pt x="383" y="1319" on="0"/>
        <pt x="248" y="1304" on="0"/>
        <pt x="100" y="1278" on="1"/>
        <pt x="85" y="1440" on="1"/>
        <pt x="124" y="1445" on="1"/>
        <pt x="372" y="1484" on="0"/>
        <pt x="499" y="1484" on="1"/>
        <pt x="598" y="1484" on="0"/>
        <pt x="680" y="1465" on="0"/>
        <pt x="723" y="1424" on="0"/>
        <pt x="723" y="1388" on="1"/>
        <pt x="723" y="1346" on="0"/>
        <pt x="586" y="1185" on="1"/>
        <pt x="433" y="1006" on="0"/>
        <pt x="399" y="934" on="1"/>
        <pt x="481" y="936" on="0"/>
        <pt x="676" y="1001" on="1"/>
        <pt x="777" y="1034" on="0"/>
        <pt x="836" y="1047" on="0"/>
        <pt x="858" y="1047" on="1"/>
        <pt x="897" y="1047" on="0"/>
        <pt x="944" y="991" on="0"/>
        <pt x="944" y="945" on="1"/>
        <pt x="944" y="875" on="0"/>
        <pt x="802" y="601" on="0"/>
        <pt x="566" y="300" on="0"/>
        <pt x="444" y="183" on="1"/>
      </contour>
    </TTGlyph>
    <TTGlyph name="glyph00029" xMin="40" yMin="35" xMax="1254" yMax="1477">
      <contour>
        <pt x="1151" y="1346" on="1"/>
        <pt x="1056" y="1216" on="0"/>
        <pt x="935" y="962" on="1"/>
        <pt x="1115" y="566" on="0"/>
        <pt x="1254" y="113" on="1"/>
        <pt x="1080" y="35" on="1"/>
        <pt x="868" y="719" on="0"/>
        <pt x="574" y="1236" on="1"/>
        <pt x="470" y="1108" on="0"/>
        <pt x="265" y="783" on="0"/>
        <pt x="185" y="619" on="1"/>
        <pt x="40" y="706" on="1"/>
        <pt x="110" y="857" on="0"/>
        <pt x="290" y="1162" on="0"/>
        <pt x="482" y="1414" on="0"/>
        <pt x="565" y="1477" on="0"/>
        <pt x="606" y="1477" on="1"/>
        <pt x="644" y="1477" on="0"/>
        <pt x="709" y="1396" on="0"/>
        <pt x="797" y="1250" on="0"/>
        <pt x="834" y="1174" on="1"/>
        <pt x="908" y="1317" on="0"/>
        <pt x="1001" y="1448" on="1"/>
      </contour>
    </TTGlyph>
    <TTGlyph name="glyph00030" xMin="220" yMin="-22" xMax="1032" yMax="1476">
      <contour>
        <pt x="622" y="1450" on="1"/>
        <pt x="607" y="1175" on="0"/>
        <pt x="490" y="397" on="0"/>
        <pt x="404" y="-22" on="1"/>
        <pt x="220" y="28" on="1"/>
        <pt x="384" y="808" on="0"/>
        <pt x="436" y="1476" on="1"/>
      </contour>
      <contour>
        <pt x="1032" y="1450" on="1"/>
        <pt x="1017" y="1175" on="0"/>
        <pt x="900" y="397" on="0"/>
        <pt x="814" y="-22" on="1"/>
        <pt x="630" y="28" on="1"/>
        <pt x="794" y="808" on="0"/>
        <pt x="846" y="1476" on="1"/>
      </contour>
    </TTGlyph>
    <TTGlyph name="glyph00031" xMin="220" yMin="-22" xMax="1402" yMax="1476">
      <contour>
        <pt x="622" y="1450" on="1"/>
        <pt x="607" y="1175" on="0"/>
        <pt x="490" y="397" on="0"/>
        <pt x="404" y="-22" on="1"/>
        <pt x="220" y="28" on="1"/>
        <pt x="384" y="808" on="0"/>
        <pt x="436" y="1476" on="1"/>
      </contour>
      <contour>
        <pt x="1012" y="1450" on="1"/>
        <pt x="997" y="1175" on="0"/>
        <pt x="880" y="397" on="0"/>
        <pt x="794" y="-22" on="1"/>
        <pt x="610" y="28" on="1"/>
        <pt x="774" y="808" on="0"/>
        <pt x="826" y="1476" on="1"/>
      </contour>
      <contour>
        <pt x="1402" y="1450" on="1"/>
        <pt x="1387" y="1175" on="0"/>
        <pt x="1270" y="397" on="0"/>
        <pt x="1184" y="-22" on="1"/>
        <pt x="1000" y="28" on="1"/>
        <pt x="1164" y="808" on="0"/>
        <pt x="1216" y="1476" on="1"/>
      </contour>
    </TTGlyph>
    <TTGlyph name="glyph00032" xMin="100" yMin="627" xMax="408" yMax="935">
      <contour>
        <pt x="408" y="788" on="1"/>
        <pt x="408" y="720" on="0"/>
        <pt x="309" y="627" on="0"/>
        <pt x="245" y="627" on="1"/>
        <pt x="185" y="627" on="0"/>
        <pt x="100" y="710" on="0"/>
        <pt x="100" y="772" on="1"/>
        <pt x="100" y="837" on="0"/>
        <pt x="196" y="935" on="0"/>
        <pt x="262" y="935" on="1"/>
        <pt x="324" y="935" on="0"/>
        <pt x="408" y="847" on="0"/>
      </contour>
    </TTGlyph>
</ttFont>
